<svg class="animated" id="freepik_stories-pets-with-halloween-costumes" xmlns="http://www.w3.org/2000/svg" viewBox="0 0 500 500" version="1.1" xmlns:xlink="http://www.w3.org/1999/xlink" xmlns:svgjs="http://svgjs.com/svgjs"><style>svg#freepik_stories-pets-with-halloween-costumes:not(.animated) .animable {opacity: 0;}svg#freepik_stories-pets-with-halloween-costumes.animated #freepik--pet-1--inject-70 {animation: 2.6s 1 forwards cubic-bezier(.36,-0.01,.5,1.38) slideUp;animation-delay: 0s;}svg#freepik_stories-pets-with-halloween-costumes.animated #freepik--pet-2--inject-70 {animation: 1.7s 1 forwards cubic-bezier(.36,-0.01,.5,1.38) slideLeft;animation-delay: 0s;}            @keyframes slideUp {                0% {                    opacity: 0;                    transform: translateY(30px);                }                100% {                    opacity: 1;                    transform: inherit;                }            }                    @keyframes slideLeft {                0% {                    opacity: 0;                    transform: translateX(-30px);                }                100% {                    opacity: 1;                    transform: translateX(0);                }            }        </style><g id="freepik--Shadow--inject-70" class="animable" style="transform-origin: 250px 416.24px;"><ellipse id="freepik--path--inject-70" cx="250" cy="416.24" rx="193.89" ry="11.32" style="fill: rgb(245, 245, 245); transform-origin: 250px 416.24px;" class="animable"></ellipse></g><g id="freepik--pet-1--inject-70" class="animable animator-active" style="transform-origin: 173.33px 270.083px;"><path d="M130.46,209.16c2.31-51,25.28-77.24,47.42-79.3,18.05-1.68,38.72,2.55,52.87,15.94,14.59,13.79,22.74-18.57,4.95-19.58,16.85-5.16,19.9,10,20,15.65s-.71,22.9-24.07,19.78c-25-3.35-30.45,14.8-19.83,34C192,221.66,130.46,209.16,130.46,209.16Z" style="fill: rgb(38, 50, 56); transform-origin: 193.083px 168.664px;" id="elq0d0c394gbd" class="animable"></path><path d="M127.25,203.51c-6.44-18.5,2-28.87,16.24-31.79S204.23,169.34,218,181s-7.8,29.89-7.8,29.89Z" style="fill: rgb(0, 255, 136); transform-origin: 173.826px 190.56px;" id="elhgovmv272m5" class="animable"></path><g id="el6o75hm6liy8"><path d="M127.25,203.51c-6.44-18.5,2-28.87,16.24-31.79S204.23,169.34,218,181s-7.8,29.89-7.8,29.89Z" style="fill: rgb(255, 255, 255); opacity: 0.5; transform-origin: 173.826px 190.56px;" class="animable"></path></g><g id="el7nz3ohhzynr"><ellipse cx="173.33" cy="225.26" rx="47.34" ry="95.57" style="fill: rgb(38, 50, 56); transform-origin: 173.33px 225.26px; transform: rotate(-84.21deg);" class="animable"></ellipse></g><path d="M210.18,250.69c6.64,42.16,45.42,101.24,12.45,115.18s-79.5-.72-76.18-33.41,2.87-57-2.66-69.11S210.18,250.69,210.18,250.69Z" style="fill: rgb(0, 255, 136); transform-origin: 189.616px 310.91px;" id="eltla5b853xs" class="animable"></path><path d="M163.55,204.74c-11,2.23-40.3,26.62-31.05,57.76,4.84,16.32,29,20.61,47.53,16.5s38.6-18.21,36.09-35.05C211.33,211.82,174.48,202.1,163.55,204.74Z" style="fill: rgb(0, 255, 136); transform-origin: 173.527px 242.394px;" id="elqztoex623b" class="animable"></path><path d="M181,245c-7.13-1.91-8.89-17.07-11.53-27.11a3,3,0,0,0-5.81,1.29c1.86,10.21,6.67,24.69,1,29.44-8.32,7-25,4.37-22.24,16.31s19.64,16.73,37.27,12.83,30.9-15.39,28.34-27.38S191.54,247.79,181,245Z" style="fill: rgb(255, 255, 255); transform-origin: 175.231px 247.499px;" id="elxyqftsku08o" class="animable"></path><path d="M150.05,214.42c-4.11,4.4-42.39,2.89-51.91,10.66S109.8,259,144,244.61C155.45,228.3,150.05,214.42,150.05,214.42Z" style="fill: rgb(0, 255, 136); transform-origin: 123.589px 231.639px;" id="el8ty68rmtk3l" class="animable"></path><g id="ellklbu1mocc"><path d="M145.52,225.46c-.88-5.38-37.72-5.44-46.09,3.11-7.57,7.74,11.92,18.82,19.67,19.16,12.29.53,14.27-1.94,19.56-4.8S146.35,230.47,145.52,225.46Z" style="fill: rgb(255, 255, 255); opacity: 0.3; transform-origin: 121.698px 234.765px;" class="animable"></path></g><path d="M164.18,239.65a3.93,3.93,0,1,1-4.69-3A3.92,3.92,0,0,1,164.18,239.65Z" style="fill: rgb(38, 50, 56); transform-origin: 160.34px 240.486px;" id="elnmxm8vdx3o" class="animable"></path><path d="M170.87,206.2c8,0,26.8-32.5,38.61-35.89,14.48-4.17,22.45,34-12.84,50.69C177.41,215.69,170.87,206.2,170.87,206.2Z" style="fill: rgb(0, 255, 136); transform-origin: 196.319px 195.497px;" id="elk44yn3kwslh" class="animable"></path><g id="eluzric9fgjg8"><path d="M180.18,214.11c-4-3.74,19.71-38.62,31.47-40.78,10.65-2,9,20.38,4.92,27-6.42,10.49-12.74,15-18.07,17.83S183.88,217.6,180.18,214.11Z" style="fill: rgb(255, 255, 255); opacity: 0.3; transform-origin: 199.717px 196.209px;" class="animable"></path></g><path d="M178.21,236.42a3.93,3.93,0,1,0,3-4.69A3.93,3.93,0,0,0,178.21,236.42Z" style="fill: rgb(38, 50, 56); transform-origin: 182.047px 235.57px;" id="el57krh8h4j8e" class="animable"></path><path d="M173.81,251c-5.24,1.16-11.92,3.93-9.45,6.6s8.52,4.55,11.77,3.83,7.93-5,9-8.45S179.05,249.81,173.81,251Z" style="fill: rgb(38, 50, 56); transform-origin: 174.534px 255.887px;" id="elexwd6drqv7n" class="animable"></path><g id="elrlf37ufw2z"><rect x="176.06" y="261.36" width="1" height="3.98" style="fill: rgb(38, 50, 56); transform-origin: 176.56px 263.35px; transform: rotate(-12.51deg);" class="animable"></rect></g><path d="M160.34,261.5c3.5,3.41,12.55,9.38,17.63,8.25s10.77-10.36,12.5-14.93C184.5,266.81,169.58,268.47,160.34,261.5Z" style="fill: rgb(38, 50, 56); transform-origin: 175.405px 262.355px;" id="elpjxrirb2u7c" class="animable"></path><path d="M168.41,265.38a1.44,1.44,0,0,0-1.76,1.18c-.89,5.16-.81,11.64,7.83,10.78,7.38-.74,6.14-7.76,5.16-11a1.46,1.46,0,0,0-1.79-1,16.83,16.83,0,0,1-4.4.46A21.8,21.8,0,0,1,168.41,265.38Z" style="fill: rgb(0, 255, 136); transform-origin: 173.333px 271.352px;" id="elncph96a8mae" class="animable"></path><g id="ely6uojp2tbs"><path d="M172.67,273.54c-.52-1.23-.4-6,0-7.84l1,.2c-.39,2-.41,6.36,0,7.25Z" style="fill: rgb(38, 50, 56); opacity: 0.3; transform-origin: 172.997px 269.62px;" class="animable"></path></g><path d="M173.34,266.15c-4.65,0-10.19-1.41-13.12-4.08a3.76,3.76,0,0,0-2,1.56l-.89-.46A4.8,4.8,0,0,1,160.2,261l.28-.09.21.21c3.47,3.38,11.41,4.72,16.19,3.66s11.41-5.63,13.12-10.17l.1-.27.3,0a4.83,4.83,0,0,1,3.49.73l-.61.79a3.78,3.78,0,0,0-2.46-.57c-2,4.73-8.79,9.41-13.72,10.5A17.49,17.49,0,0,1,173.34,266.15Z" style="fill: rgb(38, 50, 56); transform-origin: 175.61px 260.21px;" id="el9x8seqdjw4" class="animable"></path><path d="M242,304.22H111.67a6.35,6.35,0,0,1-6.33-6.33h0a6.35,6.35,0,0,1,6.33-6.33H242a6.35,6.35,0,0,1,6.33,6.33h0A6.35,6.35,0,0,1,242,304.22Z" style="fill: rgb(38, 50, 56); transform-origin: 176.835px 297.89px;" id="el3as05c1rk5" class="animable"></path><path d="M218.87,415h-84a2.83,2.83,0,0,1-2.82-2.82h0a2.83,2.83,0,0,1,2.82-2.82h84a2.82,2.82,0,0,1,2.81,2.82h0A2.82,2.82,0,0,1,218.87,415Z" style="fill: rgb(38, 50, 56); transform-origin: 176.865px 412.18px;" id="elue0ngqtb2cb" class="animable"></path><path d="M257.26,352.61a80,80,0,0,1-11.54,41.52,38,38,0,0,1-32.56,18.05H140.55a38.43,38.43,0,0,1-33.15-19,80.43,80.43,0,0,1,8.84-93.41H237.45A80.07,80.07,0,0,1,257.26,352.61Z" style="fill: rgb(38, 50, 56); transform-origin: 176.845px 355.975px;" id="elocya5558mn" class="animable"></path><g id="ellxzjj1lga69"><ellipse cx="128.92" cy="342" rx="27.97" ry="20.64" style="fill: rgb(255, 255, 255); opacity: 0.1; transform-origin: 128.92px 342px; transform: rotate(-62.54deg);" class="animable"></ellipse></g><g id="elu1ip9l5j8rl"><ellipse cx="143.77" cy="375.2" rx="8.35" ry="6.16" style="fill: rgb(255, 255, 255); opacity: 0.1; transform-origin: 143.77px 375.2px; transform: rotate(-62.54deg);" class="animable"></ellipse></g><path d="M147.39,277.12c-6.57,5.73-13.13,26.31-11.11,32.73-5.88,8.72-3.64,12.95,4.33,12.69s13.59-9,12.58-13.11,12-14.68,8.93-22.81C159.79,280.46,152,273.09,147.39,277.12Z" style="fill: rgb(0, 255, 136); transform-origin: 147.777px 299.26px;" id="elqct2adl1jp" class="animable"></path><path d="M141.18,323.05a.53.53,0,0,1-.3-.09c-1.5-1.11-.78-5.28.3-7.74a.5.5,0,1,1,.91.4c-1.18,2.72-1.35,6-.61,6.53a.5.5,0,0,1-.3.9Z" style="fill: rgb(38, 50, 56); transform-origin: 141.092px 318.96px;" id="elmpw1p126mca" class="animable"></path><path d="M135.48,322.28a.52.52,0,0,1-.38-.17c-1.18-1.33-.11-5.51,1.57-7.88a.5.5,0,0,1,.82.58c-1.59,2.23-2.33,5.86-1.64,6.64a.49.49,0,0,1,0,.7A.48.48,0,0,1,135.48,322.28Z" style="fill: rgb(38, 50, 56); transform-origin: 136.092px 318.15px;" id="elkg5jyssdki" class="animable"></path><path d="M182.74,287.64c-4,7.73-.41,23.73,3.8,29-2.31,10.26,1.31,13.39,8.65,10.25s9.39-13.32,6.95-16.78,2.49-21.9-3.06-25.45S185.58,282.21,182.74,287.64Z" style="fill: rgb(0, 255, 136); transform-origin: 192.06px 305.333px;" id="elibtct6i0j58" class="animable"></path><path d="M195.72,327.18l-.13,0c-1.8-.49-2.64-4.64-2.54-7.32a.54.54,0,0,1,.52-.48.5.5,0,0,1,.48.52c-.11,3,.92,6.08,1.8,6.32a.49.49,0,0,1,.35.61A.5.5,0,0,1,195.72,327.18Z" style="fill: rgb(38, 50, 56); transform-origin: 194.631px 323.28px;" id="el2qv0b4hcyew" class="animable"></path><path d="M190.13,328.53a.46.46,0,0,1-.23-.06c-1.59-.81-2.11-5.1-1.4-7.91a.49.49,0,0,1,.6-.36.5.5,0,0,1,.37.6c-.67,2.66,0,6.31.88,6.78a.5.5,0,0,1-.22.95Z" style="fill: rgb(38, 50, 56); transform-origin: 189.41px 324.357px;" id="el6so8ddwynw4" class="animable"></path></g><g id="freepik--pet-2--inject-70" class="animable" style="transform-origin: 342.059px 275.081px;"><path d="M389.31,412a17.83,17.83,0,0,0,15.53-9c12.77-22.53,10.54-60.47-22.08-70.92-52.41-16.78-52.48-62.73-45.51-85.17s-25.43-28-33.44,1.1-4.18,145.37-1.39,156.43C296,404,298.93,410.94,300,412H313.8s-1.63-7.72-1.63-11.9c4.06.93,41.66,11.9,57.47,11.9Z" style="fill: rgb(38, 50, 56); transform-origin: 355.24px 320.048px;" id="eloyvy8rxs6p9" class="animable"></path><path d="M404.86,352.9a47.94,47.94,0,0,0,8.06.36,23.36,23.36,0,0,0,7.14-1.36,9.26,9.26,0,0,0,6.48-8.54,23,23,0,0,0-.56-6.87,45.8,45.8,0,0,0-2.34-7.37,75.35,75.35,0,0,0-3.49-7.34c-.66-1.21-1.34-2.41-2.06-3.6l-.58-1c-.2-.37-.42-.73-.61-1.11-.4-.75-.8-1.5-1.17-2.29a40.36,40.36,0,0,1-3.47-10.45,30.11,30.11,0,0,1,.29-12.06A45.4,45.4,0,0,1,416.44,281c1.46-2.91,2.85-5.42,3.93-7.78a30.38,30.38,0,0,0,3.18-13.43,46.59,46.59,0,0,0-2.68-14.4,10,10,0,1,1,19-6.31c.07.21.13.41.19.62v.07a65.26,65.26,0,0,1,2.32,20.78,47.38,47.38,0,0,1-2,10.9,53.87,53.87,0,0,1-4.22,9.77c-1.6,2.95-3.27,5.55-4.62,7.87a29.21,29.21,0,0,0-2.94,6.2,13.61,13.61,0,0,0-.54,5.64,24.28,24.28,0,0,0,1.74,6.56c.22.57.48,1.15.74,1.73l.86,1.82c.7,1.43,1.36,2.88,2,4.34a89,89,0,0,1,3.4,9.11,57.32,57.32,0,0,1,2.2,9.86,35.05,35.05,0,0,1-.17,10.89,22,22,0,0,1-5.23,10.92,21.56,21.56,0,0,1-10.19,6.13A34.09,34.09,0,0,1,413,363.42a56.3,56.3,0,0,1-9.68-1.26,4.7,4.7,0,0,1,1.51-9.27Z" style="fill: rgb(38, 50, 56); transform-origin: 421.012px 297.836px;" id="el4ag9agvf9ni" class="animable"></path><path d="M319.51,404.46c-.57-2.29-1.2-9.1-1.75-18.72l11.51,14.4c0,4.18,1.62,11.9,1.62,11.9H317.07C316,410.94,313.07,404,319.51,404.46Z" style="fill: rgb(38, 50, 56); transform-origin: 323.18px 398.89px;" id="elna8mhiz5r0a" class="animable"></path><path d="M371.12,412H337.48c-5.37,0-2.89-4.44,2.09-6.27S371.12,412,371.12,412Z" style="fill: rgb(38, 50, 56); transform-origin: 352.791px 408.73px;" id="elumru38i5sc" class="animable"></path><path d="M379.31,165.44c7-1,18,.72,21.46,2.87s-8.26,13.14-13.27,14.23A161.39,161.39,0,0,1,379.31,165.44Z" style="fill: rgb(0, 255, 136); transform-origin: 390.354px 173.844px;" id="eliwh9hiouxd9" class="animable"></path><g id="el65xcabk3kja"><path d="M379.31,165.44c7-1,18,.72,21.46,2.87s-8.26,13.14-13.27,14.23A161.39,161.39,0,0,1,379.31,165.44Z" style="fill: rgb(255, 255, 255); opacity: 0.7; transform-origin: 390.354px 173.844px;" class="animable"></path></g><path d="M368.65,167.87c6.09-4.63,12.11-3.11,13.6-2.21,6.05,3.7,13.49,15.16,8.14,18.45s-11.11,6.33-11.11,6.33Z" style="fill: rgb(0, 255, 136); transform-origin: 380.439px 177.561px;" id="elgpy3gd3qvaw" class="animable"></path><g id="el0usfvlpuk6y"><path d="M368.65,167.87c6.09-4.63,12.11-3.11,13.6-2.21,6.05,3.7,13.49,15.16,8.14,18.45s-11.11,6.33-11.11,6.33Z" style="fill: rgb(255, 255, 255); opacity: 0.6; transform-origin: 380.439px 177.561px;" class="animable"></path></g><path d="M354.75,167.4c6.47-4.91,16.41-3.38,19.25-.94,5.75,4.95,15.52,21.81,9.51,24.84a33.43,33.43,0,0,1-12.63,3.19Z" style="fill: rgb(0, 255, 136); transform-origin: 370.073px 179.33px;" id="elesje8wbvtr8" class="animable"></path><g id="elous2p6yukhr"><path d="M354.75,167.4c6.47-4.91,16.41-3.38,19.25-.94,5.75,4.95,15.52,21.81,9.51,24.84a33.43,33.43,0,0,1-12.63,3.19Z" style="fill: rgb(255, 255, 255); opacity: 0.7; transform-origin: 370.073px 179.33px;" class="animable"></path></g><path d="M304.93,148.92c-4.93-5-14.7-10.38-18.77-10.79s-1.45,15.45,1.86,19.37A162.7,162.7,0,0,0,304.93,148.92Z" style="fill: rgb(0, 255, 136); transform-origin: 294.508px 147.811px;" id="eldhfuoqaq4vu" class="animable"></path><g id="elh8j660irtij"><path d="M304.93,148.92c-4.93-5-14.7-10.38-18.77-10.79s-1.45,15.45,1.86,19.37A162.7,162.7,0,0,0,304.93,148.92Z" style="fill: rgb(255, 255, 255); opacity: 0.6; transform-origin: 294.508px 147.811px;" class="animable"></path></g><path d="M311.9,157.33c-2-7.38-7.71-9.84-9.44-10-7-.75-19.93,3.82-17.7,9.68s5,11.79,5,11.79Z" style="fill: rgb(0, 255, 136); transform-origin: 298.202px 158.025px;" id="el0l3po8d989e" class="animable"></path><g id="eltvn10yark3"><path d="M311.9,157.33c-2-7.38-7.71-9.84-9.44-10-7-.75-19.93,3.82-17.7,9.68s5,11.79,5,11.79Z" style="fill: rgb(255, 255, 255); opacity: 0.7; transform-origin: 298.202px 158.025px;" class="animable"></path></g><path d="M323.22,165.42c-2.15-7.83-11-12.67-14.7-12.46-7.58.43-25.59,7.85-22.67,13.91a33.52,33.52,0,0,0,8.08,10.23Z" style="fill: rgb(0, 255, 136); transform-origin: 304.376px 165.027px;" id="elju01jr6kmp" class="animable"></path><g id="elq1h742jv2a"><path d="M323.22,165.42c-2.15-7.83-11-12.67-14.7-12.46-7.58.43-25.59,7.85-22.67,13.91a33.52,33.52,0,0,0,8.08,10.23Z" style="fill: rgb(255, 255, 255); opacity: 0.6; transform-origin: 304.376px 165.027px;" class="animable"></path></g><path d="M290.58,176.22c8.86-9.17,19.26-23.11,47.58-17.69s32.85,22.21,37.7,34,21.36,19.52,28.2,18C384.71,238.69,355,254.84,321,248.33s-55.66-32.49-63.26-65.79C263.51,186.48,281.71,185.39,290.58,176.22Z" style="fill: rgb(38, 50, 56); transform-origin: 330.9px 203.541px;" id="ellyiiuk22u2n" class="animable"></path><path d="M408.5,246.17a.51.51,0,0,1-.44-.26c-4.23-7.71-17.34-18.9-27.29-21.26a.5.5,0,0,1,.23-1c10.19,2.41,23.61,13.87,27.94,21.75a.51.51,0,0,1-.2.68A.53.53,0,0,1,408.5,246.17Z" style="fill: rgb(38, 50, 56); transform-origin: 394.685px 234.903px;" id="eli72t9w48enq" class="animable"></path><path d="M403.44,256.12a.5.5,0,0,1-.48-.39c-2-8.57-11.5-22.93-20.42-27.92a.5.5,0,0,1-.19-.68.51.51,0,0,1,.68-.2c9.13,5.11,18.9,19.81,20.9,28.58a.5.5,0,0,1-.37.6Z" style="fill: rgb(38, 50, 56); transform-origin: 393.115px 241.496px;" id="el3bjvczv82j" class="animable"></path><path d="M242.16,209.45a.51.51,0,0,1-.41-.2.51.51,0,0,1,.11-.7c7.25-5.32,24.26-10,34.51-7.91a.5.5,0,0,1,.39.59.52.52,0,0,1-.6.39c-10-2.07-26.62,2.54-33.71,7.73A.46.46,0,0,1,242.16,209.45Z" style="fill: rgb(38, 50, 56); transform-origin: 259.214px 204.79px;" id="el0ip6umbkm9wp" class="animable"></path><path d="M242.53,220.61a.5.5,0,0,1-.3-.11.5.5,0,0,1-.09-.7c5.51-7.1,20.57-16.3,31-17.07a.49.49,0,0,1,.54.46.5.5,0,0,1-.46.54c-10.2.75-24.91,9.74-30.3,16.68A.51.51,0,0,1,242.53,220.61Z" style="fill: rgb(38, 50, 56); transform-origin: 257.859px 211.669px;" id="elrs5bpi325aj" class="animable"></path><path d="M368.18,172.62c5.09,1.17,7.37,11.67,7.32,13.63s-75.15-16.78-76.25-20.7a15.37,15.37,0,0,1,15.3-8.1C317.83,158.08,345.39,167.39,368.18,172.62Z" style="fill: rgb(0, 255, 136); transform-origin: 337.375px 171.874px;" id="el75mbyn3nqca" class="animable"></path><g id="elhyb7fs7c1o7"><path d="M368.18,172.62c5.09,1.17,7.37,11.67,7.32,13.63s-75.15-16.78-76.25-20.7a15.37,15.37,0,0,1,15.3-8.1C317.83,158.08,345.39,167.39,368.18,172.62Z" style="fill: rgb(255, 255, 255); opacity: 0.6; transform-origin: 337.375px 171.874px;" class="animable"></path></g><path d="M344.66,201.44c-.51,2.63,1.57,3.33,4.2,3.83s4.83.62,5.33-2a4.85,4.85,0,1,0-9.53-1.82Z" style="fill: rgb(255, 255, 255); transform-origin: 349.43px 201.528px;" id="elxnabaqtf8pl" class="animable"></path><path d="M306.75,194.19c-.5,2.63,1.58,3.33,4.21,3.83s4.83.62,5.33-2a4.86,4.86,0,0,0-9.54-1.82Z" style="fill: rgb(255, 255, 255); transform-origin: 311.509px 194.375px;" id="el8pr05hvln5p" class="animable"></path><path d="M377.73,188.86c-2.53-4.9-79.31-16.7-83.93-18.79-8.14,4.88-8.8,9.45-8.8,9.45s81,21,95.89,19.66C380.1,190.18,377.73,188.86,377.73,188.86Z" style="fill: rgb(0, 255, 136); transform-origin: 332.945px 184.656px;" id="elbwow4v9dax" class="animable"></path><g id="elxs25vaq2g4n"><path d="M377.73,188.86c-2.53-4.9-79.31-16.7-83.93-18.79-8.14,4.88-8.8,9.45-8.8,9.45s81,21,95.89,19.66C380.1,190.18,377.73,188.86,377.73,188.86Z" style="fill: rgb(255, 255, 255); opacity: 0.7; transform-origin: 332.945px 184.656px;" class="animable"></path></g><path d="M390.6,206.44c-1.32-3.37-6.82-8.56-9.87-8.79s-32.11,13.09-72.55,19.46c-29.69,4.67-31.17,8.38-31.17,8.38s1.16,4.57,9.75,8.17C292.25,234.6,368.3,218.49,390.6,206.44Z" style="fill: rgb(0, 255, 136); transform-origin: 333.805px 215.673px;" id="el474010i7kjt" class="animable"></path><g id="el3zrcxd1ssco"><path d="M390.6,206.44c-1.32-3.37-6.82-8.56-9.87-8.79s-32.11,13.09-72.55,19.46c-29.69,4.67-31.17,8.38-31.17,8.38s1.16,4.57,9.75,8.17C292.25,234.6,368.3,218.49,390.6,206.44Z" style="fill: rgb(255, 255, 255); opacity: 0.7; transform-origin: 333.805px 215.673px;" class="animable"></path></g><path d="M355.47,208.83c-18,2.88-87.53-2.89-88.66.17s5.17,12.34,9.35,13.9c6.72-.35,35.54-2.91,35.54-2.91Z" style="fill: rgb(0, 255, 136); transform-origin: 311.073px 215.488px;" id="el717f5q2z6t" class="animable"></path><g id="elf83k0u3x5i5"><path d="M355.47,208.83c-18,2.88-87.53-2.89-88.66.17s5.17,12.34,9.35,13.9c6.72-.35,35.54-2.91,35.54-2.91Z" style="fill: rgb(255, 255, 255); opacity: 0.7; transform-origin: 311.073px 215.488px;" class="animable"></path></g><path d="M385.74,231.86c-17.92-.91-79.15-21.41-105.27-50.34-3.88-.23-13.49,2.63-13.49,2.63s25.82,33.35,70.37,47.51c13.78,4.39,36,9.83,36,9.83S384.83,237,385.74,231.86Z" style="fill: rgb(0, 255, 136); transform-origin: 326.36px 211.498px;" id="elyo69tnelutm" class="animable"></path><g id="elrbrd9canfo"><path d="M385.74,231.86c-17.92-.91-79.15-21.41-105.27-50.34-3.88-.23-13.49,2.63-13.49,2.63s25.82,33.35,70.37,47.51c13.78,4.39,36,9.83,36,9.83S384.83,237,385.74,231.86Z" style="fill: rgb(255, 255, 255); opacity: 0.6; transform-origin: 326.36px 211.498px;" class="animable"></path></g><path d="M392,206.55c-5.19-1.43-83.77,31.12-98.06,32.2,1.72,4.15,18.09,8.7,18.09,8.7s34.78-5.79,88.74-37.48C397.51,207.38,392,206.55,392,206.55Z" style="fill: rgb(0, 255, 136); transform-origin: 347.355px 226.977px;" id="elb595mddm539" class="animable"></path><g id="eljmz8m6rmt5q"><path d="M392,206.55c-5.19-1.43-83.77,31.12-98.06,32.2,1.72,4.15,18.09,8.7,18.09,8.7s34.78-5.79,88.74-37.48C397.51,207.38,392,206.55,392,206.55Z" style="fill: rgb(255, 255, 255); opacity: 0.6; transform-origin: 347.355px 226.977px;" class="animable"></path></g><path d="M335.71,272.63c-2.63,13.91-38.1,46.24-36.57,67.14-4.62-19-3.18-22.29,0-32.22s33.44-42.74,35.71-52.72C336.73,257.57,336.32,269.41,335.71,272.63Z" style="fill: rgb(0, 255, 136); transform-origin: 316.206px 297.3px;" id="el0ec5417k33tp" class="animable"></path><g id="ely4p7x8grdnq"><path d="M335.71,272.63c-2.63,13.91-38.1,46.24-36.57,67.14-4.62-19-3.18-22.29,0-32.22s33.44-42.74,35.71-52.72C336.73,257.57,336.32,269.41,335.71,272.63Z" style="fill: rgb(255, 255, 255); opacity: 0.6; transform-origin: 316.206px 297.3px;" class="animable"></path></g><path d="M359.08,320.37c9.63,11.85,8.59,40.64,5.34,45.75,13.81,3.14,21-6.15,21-6.15s2.07-20.13-1.87-27.6C374.28,321.66,359.08,320.37,359.08,320.37Z" style="fill: rgb(0, 255, 136); transform-origin: 372.522px 343.569px;" id="el4x8kfsvtl0i" class="animable"></path><g id="el35mdn1i5gqk"><path d="M359.08,320.37c9.63,11.85,8.59,40.64,5.34,45.75,13.81,3.14,21-6.15,21-6.15s2.07-20.13-1.87-27.6C374.28,321.66,359.08,320.37,359.08,320.37Z" style="fill: rgb(255, 255, 255); opacity: 0.7; transform-origin: 372.522px 343.569px;" class="animable"></path></g></g><defs>     <filter id="active" height="200%">         <feMorphology in="SourceAlpha" result="DILATED" operator="dilate" radius="2"></feMorphology>                <feFlood flood-color="#32DFEC" flood-opacity="1" result="PINK"></feFlood>        <feComposite in="PINK" in2="DILATED" operator="in" result="OUTLINE"></feComposite>        <feMerge>            <feMergeNode in="OUTLINE"></feMergeNode>            <feMergeNode in="SourceGraphic"></feMergeNode>        </feMerge>    </filter>    <filter id="hover" height="200%">        <feMorphology in="SourceAlpha" result="DILATED" operator="dilate" radius="2"></feMorphology>                <feFlood flood-color="#ff0000" flood-opacity="0.5" result="PINK"></feFlood>        <feComposite in="PINK" in2="DILATED" operator="in" result="OUTLINE"></feComposite>        <feMerge>            <feMergeNode in="OUTLINE"></feMergeNode>            <feMergeNode in="SourceGraphic"></feMergeNode>        </feMerge>            <feColorMatrix type="matrix" values="0   0   0   0   0                0   1   0   0   0                0   0   0   0   0                0   0   0   1   0 "></feColorMatrix>    </filter></defs></svg>